# xmcd
#
# Track frame offsets: 
#        150
#        13485
#        30557
#        45820
#        68867
#        78549
#        97232
#        114577
#        125465
#        145467
#        164932
#        191432
#        217627
#        231252
#        258852
#        283495
#        317132
#        343915
#
# Disc length: 4788 seconds
#
# Revision: 1
# Processed by: cddbd v1.5.2PL0 Copyright (c) Steve Scherf et al.
# Submitted via: ExactAudioCopy v1.3
#
DISCID=1512b212
DTITLE=Lightning Hopkins - Akella Presents - Greatest Bluesmen - vol. 
DTITLE=07  CD2
DYEAR=2017
DGENRE=Blues
TTITLE0=Worried Life Blues
TTITLE1=Baby Don't You Tear My Clothes
TTITLE2=My Babe
TTITLE3=Take A Trip With Me
TTITLE4=My Baby Don't Stand No Cheating
TTITLE5=Shinin' Moon
TTITLE6=Goin' To Dallas To See My Pony Run
TTITLE7=Just Boogyin'
TTITLE8=Wake Up Old Lady
TTITLE9=You Cook All Right
TTITLE10=I Woke Up This Morning
TTITLE11=My Black Cadillac
TTITLE12=Green Onion
TTITLE13=Little Girl
TTITLE14=I Forgot To Pull My Shoes Off
TTITLE15=Turn Me On
TTITLE16=Candy Kitchen (with John Lee Hooker)
TTITLE17=I First Come Into Houston (Interview December 1964)
EXTD=
EXTT0=
EXTT1=
EXTT2=
EXTT3=
EXTT4=
EXTT5=
EXTT6=
EXTT7=
EXTT8=
EXTT9=
EXTT10=
EXTT11=
EXTT12=
EXTT13=
EXTT14=
EXTT15=
EXTT16=
EXTT17=
PLAYORDER=
